HIERARCHY
ROOT Hips
{
  OFFSET 5.72205e-005 65.662 3.42586
  CHANNELS 6 Xposition Yposition Zposition Zrotation Xrotation Yrotation
  JOINT Chest
  {
    OFFSET 0 8.7983 -4.7612
    CHANNELS 6 Xposition Yposition Zposition Zrotation Xrotation Yrotation
    JOINT Chest2
    {
      OFFSET 0 8.0291 0.4195
      CHANNELS 6 Xposition Yposition Zposition Zrotation Xrotation Yrotation
      JOINT Chest3
      {
        OFFSET 0 9.9351 -2.2114
        CHANNELS 6 Xposition Yposition Zposition Zrotation Xrotation Yrotation
        JOINT Neck
        {
          OFFSET 0 22.3885 -0.4656
          CHANNELS 6 Xposition Yposition Zposition Zrotation Xrotation Yrotation
          JOINT Head
          {
            OFFSET -0.0001 12.643 3.4389
            CHANNELS 6 Xposition Yposition Zposition Zrotation Xrotation Yrotation
            End Site
            {
              OFFSET 0.0001 17.6655 0.5274
            }
          }
        }
        JOINT LeftCollar
        {
          OFFSET 2.2603 21.606 7.4023
          CHANNELS 6 Xposition Yposition Zposition Zrotation Xrotation Yrotation
          JOINT LeftShoulder
          {
            OFFSET 13.5163 -1.1332 -5.0146
            CHANNELS 6 Xposition Yposition Zposition Zrotation Xrotation Yrotation
            JOINT LeftElbow
            {
              OFFSET -0.0995 -28.05 -0.2431
              CHANNELS 6 Xposition Yposition Zposition Zrotation Xrotation Yrotation
              JOINT LeftWrist
              {
                OFFSET 0.0679 -23.3996 -0.1402
                CHANNELS 6 Xposition Yposition Zposition Zrotation Xrotation Yrotation
                JOINT LeftFinger1
                {
                  OFFSET 0.7932 -9.069 2.5189
                  CHANNELS 6 Xposition Yposition Zposition Zrotation Xrotation Yrotation
                  JOINT LeftFinger11
                  {
                    OFFSET -0.8272 -3.3923 0.5977
                    CHANNELS 6 Xposition Yposition Zposition Zrotation Xrotation Yrotation
                    JOINT LeftFinger12
                    {
                      OFFSET -0.5649 -2.3158 0.4082
                      CHANNELS 6 Xposition Yposition Zposition Zrotation Xrotation Yrotation
                      End Site
                      {
                        OFFSET -0.4919 -1.6479 0.2673
                      }
                    }
                  }
                }
                JOINT LeftFinger2
                {
                  OFFSET 0.9159 -9.2044 0.2193
                  CHANNELS 6 Xposition Yposition Zposition Zrotation Xrotation Yrotation
                  JOINT LeftFinger21
                  {
                    OFFSET 0.0117 -4.1944 -0.0248
                    CHANNELS 6 Xposition Yposition Zposition Zrotation Xrotation Yrotation
                    JOINT LeftFinger22
                    {
                      OFFSET 0.0071 -2.3249 -0.0142
                      CHANNELS 6 Xposition Yposition Zposition Zrotation Xrotation Yrotation
                      End Site
                      {
                        OFFSET -0.1475 -2.0882 0.0028
                      }
                    }
                  }
                }
                JOINT LeftFinger3
                {
                  OFFSET 0.6113 -8.7231 -2.0637
                  CHANNELS 6 Xposition Yposition Zposition Zrotation Xrotation Yrotation
                  JOINT LeftFinger31
                  {
                    OFFSET -0.1927 -3.8059 -0.2383
                    CHANNELS 6 Xposition Yposition Zposition Zrotation Xrotation Yrotation
                    JOINT LeftFinger32
                    {
                      OFFSET -0.1091 -2.1688 -0.1362
                      CHANNELS 6 Xposition Yposition Zposition Zrotation Xrotation Yrotation
                      End Site
                      {
                        OFFSET -0.2358 -1.9176 -0.0906
                      }
                    }
                  }
                }
                JOINT LeftFinger4
                {
                  OFFSET -0.6151 -8.0947 -3.5641
                  CHANNELS 6 Xposition Yposition Zposition Zrotation Xrotation Yrotation
                  JOINT LeftFinger41
                  {
                    OFFSET -0.4882 -2.341 -0.6462
                    CHANNELS 6 Xposition Yposition Zposition Zrotation Xrotation Yrotation
                    JOINT LeftFinger42
                    {
                      OFFSET -0.3575 -1.7167 -0.4742
                      CHANNELS 6 Xposition Yposition Zposition Zrotation Xrotation Yrotation
                      End Site
                      {
                        OFFSET -0.4187 -1.5237 -0.3496
                      }
                    }
                  }
                }
                JOINT LeftFinger0
                {
                  OFFSET -1.42 -1.8761 1.4223
                  CHANNELS 6 Xposition Yposition Zposition Zrotation Xrotation Yrotation
                  JOINT LeftFinger01
                  {
                    OFFSET -1.1471 -3.4929 2.6334
                    CHANNELS 6 Xposition Yposition Zposition Zrotation Xrotation Yrotation
                    JOINT LeftFinger02
                    {
                      OFFSET -0.823 -2.3 1.6571
                      CHANNELS 6 Xposition Yposition Zposition Zrotation Xrotation Yrotation
                      End Site
                      {
                        OFFSET -0.5822 -1.6914 1.1582
                      }
                    }
                  }
                }
              }
            }
          }
        }
        JOINT RightCollar
        {
          OFFSET -2.2603 21.606 7.4023
          CHANNELS 6 Xposition Yposition Zposition Zrotation Xrotation Yrotation
          JOINT RightShoulder
          {
            OFFSET -13.5187 -1.1334 -5.0155
            CHANNELS 6 Xposition Yposition Zposition Zrotation Xrotation Yrotation
            JOINT RightElbow
            {
              OFFSET 0.0994 -28.0499 -0.2431
              CHANNELS 6 Xposition Yposition Zposition Zrotation Xrotation Yrotation
              JOINT RightWrist
              {
                OFFSET -0.0679 -23.3996 -0.1402
                CHANNELS 6 Xposition Yposition Zposition Zrotation Xrotation Yrotation
                JOINT RightFinger1
                {
                  OFFSET -0.7932 -9.0691 2.5189
                  CHANNELS 6 Xposition Yposition Zposition Zrotation Xrotation Yrotation
                  JOINT RightFinger11
                  {
                    OFFSET 0.8272 -3.3923 0.5977
                    CHANNELS 6 Xposition Yposition Zposition Zrotation Xrotation Yrotation
                    JOINT RightFinger12
                    {
                      OFFSET 0.565 -2.3158 0.4082
                      CHANNELS 6 Xposition Yposition Zposition Zrotation Xrotation Yrotation
                      End Site
                      {
                        OFFSET 0.4919 -1.6479 0.2673
                      }
                    }
                  }
                }
                JOINT RightFinger2
                {
                  OFFSET -0.916 -9.2044 0.2193
                  CHANNELS 6 Xposition Yposition Zposition Zrotation Xrotation Yrotation
                  JOINT RightFinger21
                  {
                    OFFSET -0.0117 -4.1944 -0.0248
                    CHANNELS 6 Xposition Yposition Zposition Zrotation Xrotation Yrotation
                    JOINT RightFinger22
                    {
                      OFFSET -0.0071 -2.3249 -0.0142
                      CHANNELS 6 Xposition Yposition Zposition Zrotation Xrotation Yrotation
                      End Site
                      {
                        OFFSET 0.1475 -2.0882 0.0028
                      }
                    }
                  }
                }
                JOINT RightFinger3
                {
                  OFFSET -0.6113 -8.7231 -2.0637
                  CHANNELS 6 Xposition Yposition Zposition Zrotation Xrotation Yrotation
                  JOINT RightFinger31
                  {
                    OFFSET 0.1927 -3.8059 -0.2383
                    CHANNELS 6 Xposition Yposition Zposition Zrotation Xrotation Yrotation
                    JOINT RightFinger32
                    {
                      OFFSET 0.1091 -2.1688 -0.1362
                      CHANNELS 6 Xposition Yposition Zposition Zrotation Xrotation Yrotation
                      End Site
                      {
                        OFFSET 0.2358 -1.9176 -0.0906
                      }
                    }
                  }
                }
                JOINT RightFinger4
                {
                  OFFSET 0.6151 -8.0947 -3.564
                  CHANNELS 6 Xposition Yposition Zposition Zrotation Xrotation Yrotation
                  JOINT RightFinger41
                  {
                    OFFSET 0.4882 -2.341 -0.6462
                    CHANNELS 6 Xposition Yposition Zposition Zrotation Xrotation Yrotation
                    JOINT RightFinger42
                    {
                      OFFSET 0.3574 -1.7166 -0.4742
                      CHANNELS 6 Xposition Yposition Zposition Zrotation Xrotation Yrotation
                      End Site
                      {
                        OFFSET 0.4187 -1.5237 -0.3496
                      }
                    }
                  }
                }
                JOINT RightFinger0
                {
                  OFFSET 1.4199 -1.8761 1.4221
                  CHANNELS 6 Xposition Yposition Zposition Zrotation Xrotation Yrotation
                  JOINT RightFinger01
                  {
                    OFFSET 1.1472 -3.4929 2.6336
                    CHANNELS 6 Xposition Yposition Zposition Zrotation Xrotation Yrotation
                    JOINT RightFinger02
                    {
                      OFFSET 0.8229 -2.3 1.6571
                      CHANNELS 6 Xposition Yposition Zposition Zrotation Xrotation Yrotation
                      End Site
                      {
                        OFFSET 0.5822 -1.6914 1.1582
                      }
                    }
                  }
                }
              }
            }
          }
        }
      }
    }
  }
  JOINT RightHip
  {
    OFFSET -9.412 3.9771 -0.7758
    CHANNELS 6 Xposition Yposition Zposition Zrotation Xrotation Yrotation
    JOINT RightKnee
    {
      OFFSET -0.7531 -40.938 0
      CHANNELS 6 Xposition Yposition Zposition Zrotation Xrotation Yrotation
      JOINT RightAnkle
      {
        OFFSET 0 -40.1986 0
        CHANNELS 6 Xposition Yposition Zposition Zrotation Xrotation Yrotation
        JOINT RightToe
        {
          OFFSET 0 -4.4182 9.239
          CHANNELS 6 Xposition Yposition Zposition Zrotation Xrotation Yrotation
          End Site
          {
            OFFSET 0 0 6.1981
          }
        }
      }
    }
  }
  JOINT LeftHip
  {
    OFFSET 9.4119 3.9773 -0.7758
    CHANNELS 6 Xposition Yposition Zposition Zrotation Xrotation Yrotation
    JOINT LeftKnee
    {
      OFFSET 0.7532 -40.9383 0
      CHANNELS 6 Xposition Yposition Zposition Zrotation Xrotation Yrotation
      JOINT LeftAnkle
      {
        OFFSET 0 -40.1986 0
        CHANNELS 6 Xposition Yposition Zposition Zrotation Xrotation Yrotation
        JOINT LeftToe
        {
          OFFSET 0 -4.4182 9.239
          CHANNELS 6 Xposition Yposition Zposition Zrotation Xrotation Yrotation
          End Site
          {
            OFFSET 0 0 6.1981
          }
        }
      }
    }
  }
}
MOTION
Frames:	4
Frame Time:	0.0333333
5.72205e-005 65.662 3.42586 0 0 -0 0 8.7983 -4.7612 0 0 -0 0 8.0291 0.4195 0 0 -0 0 9.9351 -2.2114 0 0 -0 0 22.3885 -0.4656 0 0 -0 -0.0001 12.643 3.4389 0 0 -0 2.2603 21.606 7.4023 0 0 -12.5014 13.5163 -1.1332 -5.0146 88.1196 14.2451 10.6914 -0.0995 -28.05 -0.2431 -0.00160068 -0.00239207 0.000740045 0.0679 -23.3996 -0.1402 -8.4365e-005 7.00714e-005 -9.52055e-007 0.7932 -9.069 2.5189 9.93923e-017 -1.98785e-016 -1.59028e-015 -0.8272 -3.3923 0.5977 9.93923e-017 -5.96354e-016 -1.59028e-015 -0.5649 -2.3158 0.4082 -9.93923e-017 -5.96354e-016 -1.59028e-015 0.9159 -9.2044 0.2193 9.93923e-017 -1.98785e-016 -1.59028e-015 0.0117 -4.1944 -0.0248 -0.0128176 0.00232552 8.52707e-005 0.0071 -2.3249 -0.0142 9.93923e-017 5.96354e-016 -0 0.6113 -8.7231 -2.0637 9.93923e-017 -1.98785e-016 -1.59028e-015 -0.1927 -3.8059 -0.2383 -0.0160551 0.00299681 0.000857156 -0.1091 -2.1688 -0.1362 -2.48481e-016 0 3.18055e-015 -0.6151 -8.0947 -3.5641 9.93923e-017 -1.98785e-016 -1.59028e-015 -0.4882 -2.341 -0.6462 -0.0125865 0.0031206 0.00282719 -0.3575 -1.7167 -0.4742 0 1.98785e-016 -0 -1.42 -1.8761 1.4223 9.93923e-017 -1.98785e-016 -1.59028e-015 -1.1471 -3.4929 2.6334 9.93923e-017 -5.96354e-016 -1.59028e-015 -0.823 -2.3 1.6571 -9.93923e-017 -5.96354e-016 -1.59028e-015 -2.2603 21.606 7.4023 -0.865644 0.16582 7.03859 -13.5187 -1.1334 -5.0155 -88.0329 10.2057 -10.5567 0.0994 -28.0499 -0.2431 0.0015593 -0.00248883 -0.000788628 -0.0679 -23.3996 -0.1402 7.87605e-005 4.10553e-005 1.24965e-005 -0.7932 -9.0691 2.5189 -3.97569e-016 -7.95139e-016 3.18055e-015 0.8272 -3.3923 0.5977 -1.98785e-016 -3.97569e-016 3.18055e-015 0.565 -2.3158 0.4082 -1.98785e-016 0 3.18055e-015 -0.916 -9.2044 0.2193 -3.97569e-016 -7.95139e-016 3.18055e-015 -0.0117 -4.1944 -0.0248 0.0129473 0.00231697 -8.70038e-005 -0.0071 -2.3249 -0.0142 9.93923e-017 -7.95139e-016 1.59028e-015 -0.6113 -8.7231 -2.0637 -3.97569e-016 -7.95139e-016 3.18055e-015 0.1927 -3.8059 -0.2383 0.0163314 0.00303369 -0.000872333 0.1091 -2.1688 -0.1362 3.97569e-016 7.95139e-016 -3.18055e-015 0.6151 -8.0947 -3.564 -3.97569e-016 -7.95139e-016 3.18055e-015 0.4882 -2.341 -0.6462 0.0145763 0.00367772 -0.00326275 0.3574 -1.7166 -0.4742 9.93923e-017 -3.97569e-016 -0 1.4199 -1.8761 1.4221 -3.97569e-016 -7.95139e-016 3.18055e-015 1.1472 -3.4929 2.6336 -1.98785e-016 -3.97569e-016 3.18055e-015 0.8229 -2.3 1.6571 -1.98785e-016 0 3.18055e-015 -9.412 3.9771 -0.7758 3.42482 1.32465 -0.0626183 -0.7531 -40.938 0 0.000117508 0.717283 0.000978199 0 -40.1986 0 -3.4257 -2.04197 -0.0604716 8.88178e-016 -4.4182 9.239 6.47761e-025 0 -0 9.4119 3.9773 -0.7758 -3.42483 1.34017 0.0627307 0.7532 -40.9383 -2.22045e-016 -0.000193936 0.682302 -0.0013703 -8.88179e-016 -40.1986 0 3.42574 -2.02253 0.0595886 -8.88178e-016 -4.4182 9.239 -8.45714e-024 0 -7.40531e-025 
-32.4755 45.6897 35.2336 -0.0273522 -66.6681 -0.0208113 0 8.7983 -4.7612 -0.189227 3.11638 -0.282968 0 8.0291 0.4195 -0.363821 6.23367 -0.556849 3.55271e-015 9.9351 -2.2114 -0.363822 6.23368 -0.556849 -3.55271e-015 22.3885 -0.4656 -4.87538e-007 -10.3565 -1.0413e-006 -0.0001 12.643 3.4389 -1.26439e-007 -12.6732 5.9365e-008 2.2603 21.606 7.4023 10.9665 -28.1617 -17.882 13.5163 -1.1332 -5.0146 54.5728 -31.015 48.7541 -0.0995 -28.05 -0.2431 -67.2217 -74.8725 -50.5885 0.0679 -23.3996 -0.1402 -16.6306 -6.47176 13.5824 0.7932 -9.069 2.5189 -2.27081e-006 -1.14672e-006 1.88331e-006 -0.8272 -3.3923 0.5977 -7.19799e-007 -5.27925e-007 -1.42381e-006 -0.5649 -2.3158 0.4082 7.19799e-007 5.10982e-007 1.42381e-006 0.9159 -9.2044 0.2193 -2.27081e-006 -1.14672e-006 1.88331e-006 0.0117 -4.1944 -0.0248 -0.0128088 0.00232261 8.05808e-005 0.0071 -2.3249 -0.0142 1.27222e-014 5.10843e-007 -0 0.6113 -8.7231 -2.0637 -2.27081e-006 -1.14672e-006 1.88331e-006 -0.1927 -3.8059 -0.2383 -0.0160506 0.00300164 0.000854704 -0.1091 -2.1688 -0.1362 2.10642e-006 -4.13755e-006 8.42294e-008 -0.6151 -8.0947 -3.5641 -2.27081e-006 -1.14672e-006 1.88331e-006 -0.4882 -2.341 -0.6462 -0.0125284 0.00311437 0.00280881 -0.3575 -1.7167 -0.4742 3.18055e-015 -3.42404e-006 -0 -1.42 -1.8761 1.4223 -2.27081e-006 -1.14672e-006 1.88331e-006 -1.1471 -3.4929 2.6334 -7.19799e-007 -5.27925e-007 -1.42381e-006 -0.823 -2.3 1.6571 7.19799e-007 5.10982e-007 1.42381e-006 -2.2603 21.606 7.4023 -11.9804 -28.0743 11.9406 -13.5187 -1.1334 -5.0155 -51.4582 -30.865 -41.2668 0.0994 -28.0499 -0.2431 66.2721 -75.3337 49.0319 -0.0679 -23.3996 -0.1402 10.7197 -5.37745 -14.6511 -0.7932 -9.0691 2.5189 -1.59028e-015 6.36111e-015 -9.54166e-015 0.8272 -3.3923 0.5977 -1.11319e-014 6.36111e-015 -3.18055e-015 0.565 -2.3158 0.4082 4.77083e-015 1.27222e-014 -0 -0.916 -9.2044 0.2193 -1.59028e-015 6.36111e-015 -9.54166e-015 -0.0117 -4.1944 -0.0248 0.012925 0.0023172 -8.76043e-005 -0.0071 -2.3249 -0.0142 -7.06225e-031 -1.27222e-014 -3.18055e-015 -0.6113 -8.7231 -2.0637 -1.59028e-015 6.36111e-015 -9.54166e-015 0.1927 -3.8059 -0.2383 0.0164184 0.00304962 -0.000876858 0.1091 -2.1688 -0.1362 6.36111e-015 3.18055e-015 -6.36111e-015 0.6151 -8.0947 -3.564 -1.59028e-015 6.36111e-015 -9.54166e-015 0.4882 -2.341 -0.6462 0.0146375 0.00369546 -0.00327575 0.3574 -1.7166 -0.4742 -3.18055e-015 -1.59028e-014 3.18055e-015 1.4199 -1.8761 1.4221 -1.59028e-015 6.36111e-015 -9.54166e-015 1.1472 -3.4929 2.6336 -1.11319e-014 6.36111e-015 -3.18055e-015 0.8229 -2.3 1.6571 4.77083e-015 1.27222e-014 -0 -9.412 3.9771 -0.7758 -8.21441 -24.5816 -7.86284 -0.7531 -40.938 -7.10543e-015 -7.65755 69.7626 6.78244 7.10543e-015 -40.1986 0 -1.0737 19.5878 -3.65125 3.55271e-015 -4.4182 9.239 -3.19913e-007 1.46179e-007 9.94254e-009 9.4119 3.9773 -0.7758 8.15916 -24.5622 7.8197 0.7532 -40.9383 -7.10543e-015 7.58309 69.6916 -6.6643 0 -40.1986 0 1.09893 19.2208 3.62324 7.10543e-015 -4.4182 9.239 -1.98785e-016 2.18544e-007 -1.59028e-015 
-47.0887 37.8371 45.5906 -179.91 -83.3313 -179.897 -7.10543e-015 8.7983 -4.7612 -0.245333 4.49752 -0.425223 7.10543e-015 8.0291 0.4195 -0.459191 8.99669 -0.834934 -7.10543e-015 9.9351 -2.2114 -0.459191 8.9967 -0.834935 -1.42109e-014 22.3885 -0.4656 -4.648e-007 -15.1391 -1.03875e-006 -0.0001 12.643 3.4389 -1.79529e-007 -18.0309 2.86788e-007 2.2603 21.606 7.4023 13.5079 -40.5645 -21.7161 13.5163 -1.1332 -5.0146 45.1136 -52.5075 68.8868 -0.0995 -28.05 -0.2431 178.135 -60.9417 -158.378 0.0679 -23.3996 -0.1402 -24.1679 -9.4934 19.801 0.7932 -9.069 2.5189 -2.89634e-007 4.10103e-007 4.08051e-006 -0.8272 -3.3923 0.5977 3.61131e-006 3.74433e-006 1.90432e-005 -0.5649 -2.3158 0.4082 3.66853e-006 -9.47299e-006 -1.27456e-005 0.9159 -9.2044 0.2193 -2.89634e-007 4.10103e-007 4.08051e-006 0.0117 -4.1944 -0.0248 -0.0128219 0.0023195 9.09853e-005 0.0071 -2.3249 -0.0142 2.18201e-006 2.73381e-006 -5.22482e-006 0.6113 -8.7231 -2.0637 -2.89634e-007 4.10103e-007 4.08051e-006 -0.1927 -3.8059 -0.2383 -0.0160743 0.00300958 0.000871178 -0.1091 -2.1688 -0.1362 -2.01677e-006 -7.53811e-007 -2.51767e-006 -0.6151 -8.0947 -3.5641 -2.89634e-007 4.10103e-007 4.08051e-006 -0.4882 -2.341 -0.6462 -0.0126123 0.00312532 0.002835 -0.3575 -1.7167 -0.4742 4.19058e-006 1.38958e-005 4.08849e-006 -1.42 -1.8761 1.4223 -2.89634e-007 4.10103e-007 4.08051e-006 -1.1471 -3.4929 2.6334 3.61131e-006 3.74433e-006 1.90432e-005 -0.823 -2.3 1.6571 3.66853e-006 -9.47299e-006 -1.27456e-005 -2.2603 21.606 7.4023 -14.7067 -40.5366 15.4797 -13.5187 -1.1334 -5.0155 -37.2303 -50.2834 -55.7445 0.0994 -28.0499 -0.2431 -175.127 -61.4561 160.254 -0.0679 -23.3996 -0.1402 15.6339 -7.91326 -21.193 -0.7932 -9.0691 2.5189 -1.6658e-006 3.17597e-007 2.36798e-006 0.8272 -3.3923 0.5977 1.6658e-006 -3.17597e-007 -2.36798e-006 0.565 -2.3158 0.4082 -1.6658e-006 3.17597e-007 2.36798e-006 -0.916 -9.2044 0.2193 -1.6658e-006 3.17597e-007 2.36798e-006 -0.0117 -4.1944 -0.0248 0.0129606 0.00230336 -7.83181e-005 -0.0071 -2.3249 -0.0142 -0 0 3.18055e-015 -0.6113 -8.7231 -2.0637 -1.6658e-006 3.17597e-007 2.36798e-006 0.1927 -3.8059 -0.2383 0.0163339 0.00304062 -0.000870713 0.1091 -2.1688 -0.1362 -3.18055e-015 0 4.77083e-015 0.6151 -8.0947 -3.564 -1.6658e-006 3.17597e-007 2.36798e-006 0.4882 -2.341 -0.6462 0.0145779 0.00366778 -0.00325543 0.3574 -1.7166 -0.4742 -2.80396e-006 4.93341e-007 -3.13021e-007 1.4199 -1.8761 1.4221 -1.6658e-006 3.17597e-007 2.36798e-006 1.1472 -3.4929 2.6336 1.6658e-006 -3.17597e-007 -2.36798e-006 0.8229 -2.3 1.6571 -1.6658e-006 3.17597e-007 2.36798e-006 -9.412 3.9771 -0.7758 -15.3665 -35.3061 -12.7798 -0.7531 -40.938 7.10543e-015 -157.287 79.1312 154.757 7.10543e-015 -40.1986 1.42109e-014 1.66717 29.6626 -6.2379 -3.55271e-015 -4.4182 9.239 -1.98785e-015 0 3.18055e-015 9.4119 3.9773 -0.7758 15.1613 -35.2801 12.5691 0.7532 -40.9383 -3.55271e-015 157.352 79.2452 -154.774 0 -40.1986 0 -1.72046 29.1013 6.26234 0 -4.4182 9.239 9.84135e-007 1.36389e-007 1.60383e-006 
-43.8415 39.6857 43.5068 -99.5469 -89.9887 -99.5358 7.10543e-015 8.7983 -4.7612 -0.233795 4.14543 -0.393377 0 8.0291 0.4195 -0.440701 8.29236 -0.772788 1.42109e-014 9.9351 -2.2114 -0.440702 8.29236 -0.772789 0 22.3885 -0.4656 4.79904e-006 -14.3479 5.5673e-006 -0.0001 12.643 3.4389 -6.30121e-007 -16.073 -6.37693e-008 2.2603 21.606 7.4023 12.8202 -37.6876 -21.0247 13.5163 -1.1332 -5.0146 46.7868 -48.0351 64.0726 -0.0995 -28.05 -0.2431 -171.102 -68.0045 -149.145 0.0679 -23.3996 -0.1402 -22.705 -8.96047 18.2853 0.7932 -9.069 2.5189 -6.36111e-015 -1.59028e-015 3.97569e-015 -0.8272 -3.3923 0.5977 3.18055e-015 -1.59028e-015 7.95139e-015 -0.5649 -2.3158 0.4082 3.18055e-015 -1.59028e-015 8.74653e-015 0.9159 -9.2044 0.2193 -6.36111e-015 -1.59028e-015 3.97569e-015 0.0117 -4.1944 -0.0248 -0.0128217 0.00231823 8.55233e-005 0.0071 -2.3249 -0.0142 3.18055e-015 -1.11319e-014 1.59028e-015 0.6113 -8.7231 -2.0637 -6.36111e-015 -1.59028e-015 3.97569e-015 -0.1927 -3.8059 -0.2383 -0.0160605 0.00299505 0.000858574 -0.1091 -2.1688 -0.1362 8.82781e-031 6.36111e-015 -7.95139e-015 -0.6151 -8.0947 -3.5641 -6.36111e-015 -1.59028e-015 3.97569e-015 -0.4882 -2.341 -0.6462 -0.0125529 0.00311568 0.00281769 -0.3575 -1.7167 -0.4742 3.18055e-015 -3.18055e-015 -7.95139e-016 -1.42 -1.8761 1.4223 -6.36111e-015 -1.59028e-015 3.97569e-015 -1.1471 -3.4929 2.6334 3.18055e-015 -1.59028e-015 7.95139e-015 -0.823 -2.3 1.6571 3.18055e-015 -1.59028e-015 8.74653e-015 -2.2603 21.606 7.4023 -13.9834 -37.6537 14.8561 -13.5187 -1.1334 -5.0155 -40.2836 -46.0407 -52.7904 0.0994 -28.0499 -0.2431 174.171 -68.5801 151.212 -0.0679 -23.3996 -0.1402 14.7345 -7.49757 -19.6181 -0.7932 -9.0691 2.5189 4.48524e-006 -7.73336e-006 -2.27538e-007 0.8272 -3.3923 0.5977 1.18398e-006 5.72336e-006 -3.44791e-006 0.565 -2.3158 0.4082 3.18055e-015 -7.95139e-016 1.98785e-016 -0.916 -9.2044 0.2193 4.48524e-006 -7.73336e-006 -2.27538e-007 -0.0117 -4.1944 -0.0248 0.0129475 0.00231408 -8.91557e-005 -0.0071 -2.3249 -0.0142 -7.53123e-031 -5.56597e-015 -7.7526e-015 -0.6113 -8.7231 -2.0637 4.48524e-006 -7.73336e-006 -2.27538e-007 0.1927 -3.8059 -0.2383 0.0164003 0.00305018 -0.000873804 0.1091 -2.1688 -0.1362 6.99257e-006 -8.51833e-006 -1.83957e-006 0.6151 -8.0947 -3.564 4.48524e-006 -7.73336e-006 -2.27538e-007 0.4882 -2.341 -0.6462 0.0145995 0.00369172 -0.00327431 0.3574 -1.7166 -0.4742 7.01066e-006 -2.79883e-006 -5.43723e-006 1.4199 -1.8761 1.4221 4.48524e-006 -7.73336e-006 -2.27538e-007 1.1472 -3.4929 2.6336 1.18398e-006 5.72336e-006 -3.44791e-006 0.8229 -2.3 1.6571 3.18055e-015 -7.95139e-016 1.98785e-016 -9.412 3.9771 -0.7758 -13.3087 -32.9254 -11.1122 -0.7531 -40.938 0 -130.594 84.8369 128.519 0 -40.1986 0 1.33709 27.5465 -5.88876 0 -4.4182 9.239 -8.44569e-007 -3.16515e-008 1.87682e-008 9.4119 3.9773 -0.7758 12.9194 -32.9174 10.6437 0.7532 -40.9383 3.55271e-015 130.082 84.9365 -127.963 7.10543e-015 -40.1986 0 -1.65161 27.0052 6.11002 -7.10543e-015 -4.4182 9.239 7.21027e-007 6.66145e-007 -1.66318e-006 
